<svg xmlns="http://www.w3.org/2000/svg" preserveAspectRatio="xMidYMid" width="20.875" height="17.25" viewBox="0 0 20.875 17.25"><defs><style>.cls-1{fill:#fff;fill-rule:evenodd}</style></defs><path d="M20.862 2.041a8.44 8.44 0 0 1-2.457.686A4.35 4.35 0 0 0 20.286.319a8.472 8.472 0 0 1-2.716 1.056A4.237 4.237 0 0 0 14.448.001c-2.363 0-4.278 1.948-4.278 4.352 0 .341.038.673.111.992C6.726 5.163 3.573 3.43 1.464.797a4.394 4.394 0 0 0-.579 2.188c0 1.51.755 2.842 1.903 3.623A4.213 4.213 0 0 1 .85 6.064v.054c0 2.109 1.475 3.868 3.431 4.268a4.224 4.224 0 0 1-1.931.074c.544 1.729 2.124 2.988 3.995 3.023a8.49 8.49 0 0 1-6.332 1.802 11.955 11.955 0 0 0 6.557 1.956c7.867 0 12.17-6.632 12.17-12.384 0-.188-.004-.376-.012-.563a8.785 8.785 0 0 0 2.134-2.253z" class="cls-1"/></svg>