<svg xmlns="http://www.w3.org/2000/svg" preserveAspectRatio="xMidYMid" width="19.718" height="20" viewBox="0 0 19.718 20"><defs><style>.cls-1{fill:#fff;fill-rule:evenodd}</style></defs><path d="M19.652 14.118c-.048 1.064-.215 1.791-.459 2.427a4.91 4.91 0 0 1-1.137 1.772 4.835 4.835 0 0 1-1.746 1.153c-.627.247-1.343.416-2.392.465-1.052.048-1.388.06-4.065.06-2.677 0-3.013-.012-4.064-.06-1.049-.049-1.766-.218-2.393-.465a4.844 4.844 0 0 1-1.746-1.153 4.91 4.91 0 0 1-1.137-1.772c-.244-.636-.41-1.363-.458-2.427-.048-1.066-.059-1.407-.059-4.123s.011-3.056.059-4.123c.048-1.064.214-1.791.458-2.427A4.907 4.907 0 0 1 1.65 1.674 4.818 4.818 0 0 1 3.396.521C4.023.274 4.74.104 5.789.056c1.051-.049 1.387-.06 4.064-.06s3.013.011 4.065.06c1.049.048 1.765.218 2.392.465a4.81 4.81 0 0 1 1.746 1.153 4.907 4.907 0 0 1 1.137 1.771c.244.636.411 1.363.459 2.427.048 1.067.059 1.407.059 4.123s-.011 3.057-.059 4.123zM9.853 4.86c-2.795 0-5.062 2.299-5.062 5.135s2.267 5.135 5.062 5.135c2.796 0 5.062-2.299 5.062-5.135S12.649 4.86 9.853 4.86zm5.262-1.403c-.653 0-1.183.538-1.183 1.2 0 .663.53 1.2 1.183 1.2.654 0 1.183-.537 1.183-1.2 0-.662-.529-1.2-1.183-1.2zm-5.262 9.871c-1.814 0-3.286-1.492-3.286-3.333 0-1.841 1.472-3.333 3.286-3.333 1.815 0 3.286 1.492 3.286 3.333 0 1.841-1.471 3.333-3.286 3.333z" class="cls-1"/></svg>